<?xml version="1.0" encoding="UTF-8"?>
<svg width="100" height="100" version="1.1" viewBox="800 0 100 100" xmlns="http://www.w3.org/2000/svg">
 <path transform="translate(800)" d="m49.947 0a50 50 0 0 0-49.947 50 50 50 0 0 0 50 50 50 50 0 0 0 50-50 50 50 0 0 0-50-50 50 50 0 0 0-0.052734 0zm0.046875 8.7246a41.275 41.275 0 0 1 0.005859 0 41.275 41.275 0 0 1 25.436 8.7695l-25.436 25.436-25.436-25.436a41.275 41.275 0 0 1 25.43-8.7695zm-32.5 15.84 25.436 25.436-25.436 25.436a41.275 41.275 0 0 1-8.7695-25.436 41.275 41.275 0 0 1 8.7695-25.436zm65.012 0a41.275 41.275 0 0 1 8.7695 25.436 41.275 41.275 0 0 1-8.7695 25.436l-25.436-25.436 25.436-25.436zm-32.506 32.506 25.436 25.436a41.275 41.275 0 0 1-25.436 8.7695 41.275 41.275 0 0 1-25.436-8.7695l25.436-25.436z" fill="#b3b3b3" fill-rule="evenodd"/>
</svg>
